<svg xmlns="http://www.w3.org/2000/svg" width="24" height="24" viewBox="0 0 24 24">
  <path fill="#4285F4" d="M22.56 12.25c0-.78-.07-1.53-.2-2.25H12v4.26h5.92c-.26 1.37-1.04 2.53-2.21 3.31v2.75h3.57c2.08-1.92 3.28-4.74 3.28-8.07z"/>
  <path fill="#34A853" d="M12 23c2.97 0 5.46-1 7.28-2.69l-3.57-2.75c-.99.69-2.26 1.1-3.71 1.1-2.86 0-5.29-1.93-6.16-4.53H2.18v2.84C3.99 20.53 7.7 23 12 23z"/>
  <path fill="#FBBC05" d="M5.84 14.13c-.25-.69-.38-1.43-.38-2.19s.14-1.5.38-2.19V7.91H2.18C1.43 9.14 1 10.53 1 12s.43 2.86 1.18 4.09l3.66-2.96z"/>
  <path fill="#EA4335" d="M12 5.38c1.62 0 3.06.56 4.21 1.64l3.15-3.15C17.46 2.09 14.97 1 12 1 7.7 1 3.99 3.47 2.18 7.91l3.66 2.96c.87-2.6 3.3-4.53 6.16-4.53z"/>
  <path fill="none" d="M1 1h22v22H1z"/>
</svg>